<svg width="24" height="24" viewBox="0 0 24 24" fill="none" xmlns="http://www.w3.org/2000/svg">
<path d="M6.08318 10.2248C6.08318 14.326 9.67046 17.7172 11.2587 19.0172C11.4869 19.2031 11.601 19.2978 11.7709 19.3452C11.9028 19.3823 12.0972 19.3823 12.2291 19.3452C12.399 19.2978 12.5131 19.204 12.7413 19.0172C14.3295 17.7172 17.9168 14.326 17.9168 10.2248C17.9154 9.45489 17.7615 8.6929 17.4641 7.98276C17.1667 7.27262 16.7317 6.6284 16.184 6.08724C15.0692 4.98759 13.5659 4.37168 12 4.37305C10.4341 4.37168 8.93077 4.98759 7.81596 6.08724C7.26758 6.62783 6.83203 7.27195 6.53457 7.98222C6.23712 8.69248 6.08368 9.45475 6.08318 10.2248Z" stroke="#313131" stroke-linecap="round" stroke-linejoin="round"/>
<path d="M10.3095 9.44455C10.3095 9.8929 10.4876 10.3229 10.8046 10.6399C11.1216 10.957 11.5516 11.1351 12 11.1351C12.4483 11.1351 12.8783 10.957 13.1954 10.6399C13.5124 10.3229 13.6905 9.8929 13.6905 9.44455C13.6905 8.9962 13.5124 8.5662 13.1954 8.24917C12.8783 7.93214 12.4483 7.75403 12 7.75403C11.5516 7.75403 11.1216 7.93214 10.8046 8.24917C10.4876 8.5662 10.3095 8.9962 10.3095 9.44455Z" stroke="#313131" stroke-linecap="round" stroke-linejoin="round"/>
</svg>
