<svg width="24" height="24" viewBox="0 0 24 24" fill="none" xmlns="http://www.w3.org/2000/svg">
<path d="M10.4183 5.0475C10.2946 4.73839 10.0812 4.4734 9.80554 4.2867C9.52988 4.1 9.20461 4.00014 8.87167 4H6.57917C6.16035 4 5.75868 4.16638 5.46253 4.46253C5.16638 4.75868 5 5.16035 5 5.57917C5 12.9908 11.0083 19 18.4217 19C18.8403 18.9998 19.2418 18.8333 19.5378 18.5372C19.8337 18.2411 20 17.8395 20 17.4208V15.1283C20 14.7952 19.9002 14.4698 19.7135 14.194C19.5268 13.9181 19.2617 13.7046 18.9525 13.5808L16.7558 12.7025C16.4769 12.5909 16.173 12.5567 15.8762 12.6037C15.5794 12.6506 15.3009 12.7769 15.07 12.9692L14.5033 13.4425C14.1838 13.7091 13.776 13.8465 13.3603 13.8277C12.9445 13.8089 12.5508 13.6352 12.2567 13.3408L10.66 11.7417C10.366 11.4477 10.1924 11.0544 10.1734 10.639C10.1545 10.2237 10.2915 9.81622 10.5575 9.49667L11.03 8.93C11.2227 8.69921 11.3494 8.42058 11.3966 8.12365C11.4439 7.82672 11.4099 7.52253 11.2983 7.24333L10.4183 5.0475Z" stroke="#313131" stroke-linecap="round" stroke-linejoin="round"/>
</svg>
