<svg width="24" height="24" viewBox="0 0 24 24" fill="none" xmlns="http://www.w3.org/2000/svg">
<path d="M16.4639 11.9158C16.3918 11.8199 16.2478 11.8078 16.1639 11.8918C14.9999 12.8878 13.5599 13.5359 12.0119 13.5359C10.4639 13.5359 9.03594 12.8878 7.85995 11.8918C7.77596 11.8199 7.63195 11.8319 7.55995 11.9158L6.32391 13.608C6.26397 13.692 6.27596 13.8 6.34794 13.872C7.39191 14.7119 8.6039 15.2879 9.86385 15.5879L7.24794 20.196C7.17602 20.3279 7.27191 20.4959 7.41581 20.496H9.97196C10.056 20.496 10.1278 20.4479 10.1518 20.3639L11.9759 16.284L13.7999 20.3639C13.8239 20.4359 13.8961 20.496 13.9801 20.496H16.5359C16.6919 20.496 16.776 20.34 16.7041 20.196L14.0879 15.5879C15.3479 15.2879 16.5601 14.736 17.6041 13.872C17.76 13.8 17.7719 13.692 17.6999 13.608L16.4639 11.9158Z" fill="currentColor"/>
<path fill-rule="evenodd" clip-rule="evenodd" d="M12.0119 3.47979C10.8479 3.4798 9.79191 3.95985 9.03592 4.71582C8.27995 5.45979 7.79992 6.51585 7.79989 7.6918C7.79989 8.8678 8.27992 9.91207 9.03592 10.6681C9.79191 11.424 10.86 11.9038 12.0119 11.9038C13.1758 11.9038 14.2319 11.424 14.9879 10.6681C15.7439 9.91207 16.2239 8.8558 16.2239 7.6918C16.2239 6.52785 15.7439 5.47179 14.9879 4.71582C14.2319 3.95987 13.1759 3.47979 12.0119 3.47979ZM13.3801 6.32393C13.0321 5.97593 12.5639 5.75996 12.0239 5.75996C11.496 5.75997 11.016 5.97596 10.6681 6.32393C10.3321 6.6719 10.1041 7.15184 10.1041 7.67979C10.1041 8.20779 10.3201 8.68794 10.6681 9.03594C11.016 9.3839 11.484 9.59989 12.0239 9.5999C12.5519 9.5999 13.0321 9.38394 13.3801 9.03594C13.728 8.68794 13.944 8.21976 13.944 7.67979C13.944 7.15187 13.728 6.67189 13.3801 6.32393Z" fill="currentColor"/>
</svg>
